<mxfile host="app.diagrams.net" modified="2023-06-20T18:22:19.802Z" agent="Mozilla/5.0 (Windows NT 10.0; Win64; x64) AppleWebKit/537.36 (KHTML, like Gecko) Chrome/114.0.0.0 Safari/537.36 Edg/114.0.1823.51" version="21.5.0" etag="9SNdiu9AuPy8TWP0tA2d" type="github">
  <diagram name="Page-1" id="qMriQJ_brfO3yCAsMGW1">
    <mxGraphModel>
      <root>
        <mxCell id="0" />
        <mxCell id="1" parent="0" />
      </root>
    </mxGraphModel>
  </diagram>
</mxfile>
